<svg width="102" height="25" xmlns="http://www.w3.org/2000/svg">
  <path d="m19.048 12.996 2.554 4.385 2.446-9.048-4.648 4.139c-.227.202-.327.414-.352.524Zm73.917-8.71c-.948 0-1.895.177-2.818.527a10.302 10.302 0 0 0-4.84 3.818 8.91 8.91 0 0 0-1.269 2.733c-.236.888-.29 1.715-.158 2.457.13.739.38 1.346.762 1.861.38.51.872.912 1.507 1.227.642.317 1.377.472 2.246.472.973 0 1.944-.18 2.888-.531.977-.366 1.89-.878 2.714-1.522a10.34 10.34 0 0 0 2.143-2.291 8.914 8.914 0 0 0 1.269-2.734c.218-.872.269-1.718.14-2.479-.12-.722-.365-1.32-.749-1.827-.388-.513-.891-.918-1.536-1.234-.655-.322-1.406-.477-2.299-.477ZM38.571 20.714h6.373c.152-.002.501-.258.565-.495l.222-.84c.479-1.808 2.024-3.264 3.846-3.626.399-.08.8-.198 1.196-.355a9.286 9.286 0 0 0 2.395-1.385 9.825 9.825 0 0 0 1.926-2.065 7.741 7.741 0 0 0 1.126-2.429c.209-.788.261-1.524.156-2.19-.101-.635-.307-1.16-.628-1.603-.312-.434-.724-.773-1.254-1.036-.54-.268-1.201-.404-1.966-.404h-9.172c-.152.002-.5.258-.564.495l-4.22 15.933Zm21.429 0h6.373c.152-.002.5-.258.564-.495l.224-.842c.477-1.805 2.022-3.262 3.845-3.624.398-.08.8-.198 1.197-.355a9.269 9.269 0 0 0 2.393-1.385 9.769 9.769 0 0 0 1.926-2.064c.52-.75.9-1.567 1.127-2.43.208-.786.26-1.523.155-2.19-.1-.635-.306-1.16-.626-1.603a3.332 3.332 0 0 0-1.254-1.036c-.54-.268-1.203-.404-1.967-.404h-9.171c-.152.002-.502.258-.566.495L60 20.714Zm-55.714 0H17.72c.172 0 .434-.221.538-.403l-2.97-5.078c-1.033-1.767-.5-4.185 1.266-5.75l5.588-4.96H9.115c-.154.003-.508.256-.572.49L4.286 20.715Zm20.952 0h5.425c.153-.001.504-.256.567-.494l4.246-15.934H30.05c-.152.002-.503.257-.566.494l-4.246 15.934ZM30.74 25h-6.15c-1.212 0-2.308-.523-3.005-1.432a4.325 4.325 0 0 1-.158-.222c-.94 1.028-2.263 1.654-3.6 1.654H3.761c-1.213 0-2.308-.523-3.006-1.432-.712-.93-.934-2.16-.608-3.379L4.545 3.762C5.11 1.656 7.145.069 9.279.069h14.066c1.33 0 2.476.606 3.146 1.622C27.417.659 28.751 0 30.127 0h6.15c1.212 0 2.308.523 3.006 1.432.091.12.176.244.25.373C40.462.708 41.844 0 43.27 0h9.212c1.433 0 2.736.283 3.875.843a7.67 7.67 0 0 1 2.842 2.356c.276.378.514.78.717 1.206l.19-.712C60.668 1.587 62.702 0 64.838 0h9.211c1.433 0 2.736.283 3.876.843a7.667 7.667 0 0 1 2.842 2.356c.576.79.994 1.688 1.245 2.678a14.609 14.609 0 0 1 6.579-5c2.892-1.098 6.116-1.08 8.54.108 1.249.611 2.285 1.454 3.081 2.505.8 1.06 1.326 2.308 1.563 3.712.227 1.354.153 2.794-.22 4.28a13.263 13.263 0 0 1-1.885 4.086 14.621 14.621 0 0 1-3.046 3.247 14.47 14.47 0 0 1-3.862 2.164c-2.891 1.079-6.116 1.088-8.55-.116-1.245-.615-2.272-1.462-3.056-2.517-.71-.952-1.204-2.058-1.473-3.293a14.004 14.004 0 0 1-2.32 2.324 13.672 13.672 0 0 1-3.512 2.012c-.637.248-1.287.436-1.934.564-.203.04-.474.288-.527.483l-.224.837c-.564 2.105-2.598 3.692-4.733 3.692H59.31c-1.212 0-2.308-.522-3.005-1.431-.712-.93-.934-2.161-.608-3.38l.936-3.497a13.674 13.674 0 0 1-4.353 2.732c-.635.248-1.285.436-1.933.564-.204.04-.475.29-.527.484l-.223.835c-.564 2.106-2.598 3.693-4.735 3.693h-7.121c-1.212 0-2.308-.522-3.006-1.431a3.32 3.32 0 0 1-.242-.36C33.566 24.281 32.175 25 30.74 25Z" fill="#FF3379" fill-rule="evenodd"/>
</svg>
